HIERARCHY
ROOT hip
{
  OFFSET 0 0 0
  CHANNELS 6 Xposition Yposition Zposition Zrotation Yrotation Xrotation
  JOINT abdomen
  {
    OFFSET 0 20.6881 -0.73152
    CHANNELS 3 Zrotation Xrotation Yrotation
    JOINT chest
    {
      OFFSET 0 11.7043 -0.48768
      CHANNELS 3 Zrotation Xrotation Yrotation
      JOINT head
      {
        OFFSET 0 22.1894 -2.19456
        CHANNELS 3 Zrotation Xrotation Yrotation
        End Site
        {
          OFFSET 0.14528 15.04674 0.04672
        }
      }
      JOINT rShldr
      {
        OFFSET -10.68224 17.2634 -5.8768
        CHANNELS 3 Zrotation Xrotation Yrotation
        JOINT rForeArm
        {
          OFFSET -28.1742 -1.7115 0.48768
          CHANNELS 3 Zrotation Xrotation Yrotation
          JOINT rHand
          {
            OFFSET -22.5879 0.773209 7.07136
            CHANNELS 3 Zrotation Xrotation Yrotation
            End Site
            {
              OFFSET -1.2192 -0.487915 3.41376
            }
          }
        }
      }
      JOINT lShldr
      {
        OFFSET 10.68224 17.2634 -3.8768
        CHANNELS 3 Zrotation Xrotation Yrotation
        JOINT lForeArm
        {
          OFFSET 28.1742 -1.7115 0.48768
          CHANNELS 3 Zrotation Xrotation Yrotation
          JOINT lHand
          {
            OFFSET 22.5879 0.773209 7.07136
            CHANNELS 3 Zrotation Xrotation Yrotation
            End Site
            {
              OFFSET 1.2192 -0.487915 3.41376
            }
          }
        }
      }
    }
  }
  JOINT rThigh
  {
    OFFSET -8.77824 4.35084 1.2192
    CHANNELS 3 Zrotation Xrotation Yrotation
    JOINT rShin
    {
      OFFSET 0 -36.8199 0.73152
      CHANNELS 3 Zrotation Xrotation Yrotation
      JOINT rFoot
      {
        OFFSET 0.73152 -45.1104 -5.12064
        CHANNELS 3 Zrotation Xrotation Yrotation
        End Site
        {
          OFFSET -1.1221 -3.69964 12.103
        }
      }
    }
  }
  JOINT lThigh
  {
    OFFSET 8.77824 4.35084 1.2192
    CHANNELS 3 Zrotation Xrotation Yrotation
    JOINT lShin
    {
      OFFSET 0 -36.8199 0.73152
      CHANNELS 3 Zrotation Xrotation Yrotation
      JOINT lFoot
      {
        OFFSET -0.73152 -45.1104 -5.12064
        CHANNELS 3 Zrotation Xrotation Yrotation
        End Site
        {
          OFFSET 1.1221 -3.69964 12.103
        }
      }
    }
  }
}
MOTION
Frames:	27
Frame Time:	0.00833333
46.2322 85.3094 -83.6652 0.0 0.0 0.0 1.03689 -0.00525957 0.0288005 0.286389 -0.0060246 0.0496196 -2.28727e-14 3.18055e-15 1.70831e-16 -7.91742e-14 3.16813e-16 5.96354e-16 -1.37778e-12 4.09695e-13 9.54166e-15 -1.57116e-11 -4.15038e-13 2.8625e-14 -8.14932e-14 2.29845e-16 -7.95139e-16 -1.37311e-12 -4.11882e-13 3.18055e-14 -1.57144e-11 4.07012e-13 3.18055e-14 1.25405 -5.58398 -0.112102 0.000559965 4.56012 0.030781 -0.477195 1.02321 0.0749517 0.326843 -1.91893 0.0116274 0.00902154 -2.07859 0.0743668 0.458676 3.99677 -0.132393
44.7052 83.3006 -84.746 2.854 -22.8645 5.6111 0.462911 -0.391027 -0.765483 1.12506 -1.21248 -0.13944 -1.32571 -6.7375 -1.7549 20.359 8.07271 -3.65118 -5.48539 -2.80984 8.19498 0.00514147 -1.59649 -0.224061 -20.3603 6.5925 1.99522 6.14607 -3.32502 -8.95098 -0.0356191 -4.18924 0.583093 1.1222 -10.1353 2.86196 0.0095238 12.5226 0.167589 -1.36372 -4.08151 -5.84087 1.98277 -7.08695 -1.13415 -0.0194943 6.99495 -0.0905104 1.01253 -2.17446 3.94144
44.7612 83.2987 -84.7015 2.8084 -23.014 5.6357 -0.137829 -0.793679 -1.61047 1.99829 -2.48877 -0.341294 -3.18782 -13.8456 -3.69635 43.0327 16.4896 -7.75465 -10.413 -5.5832 16.9116 -0.00307458 -3.2999 -0.463723 -42.4008 13.5239 4.19815 11.5206 -6.5635 -18.4994 0.0203637 -8.60705 1.20865 1.52189 -14.8894 6.11457 -0.025181 20.9404 0.325683 -3.45245 -9.31107 -12.2287 3.51166 -12.544 -2.38946 0.00899616 16.5876 -0.274803 2.55947 -8.60874 8.34958
44.8286 83.3131 -84.6199 2.4982 -22.8337 5.5044 -0.717133 -1.16168 -2.35448 2.77849 -3.62526 -0.518504 -5.28182 -20.1341 -5.56969 64.385 23.8062 -11.8674 -14.1088 -7.74117 24.7962 -0.022146 -4.78918 -0.674278 -62.5282 19.6785 6.31633 15.4165 -9.00295 -27.1691 0.15424 -12.5625 1.78741 2.34388 -19.0459 9.18154 -0.101087 28.447 0.488412 -6.31945 -13.6672 -18.1592 4.64882 -17.3955 -3.56283 0.0920469 25.1413 -0.461906 4.79454 -14.2037 12.4669
44.9297 83.3094 -84.5823 2.4134 -22.7057 5.5845 -1.22051 -1.44391 -2.84569 3.34338 -4.41238 -0.633164 -7.00451 -24.449 -6.98026 80.0311 28.7605 -15.1402 -16.3435 -9.01032 30.4012 -0.0406295 -5.74346 -0.809933 -76.8269 23.9855 7.90994 17.6964 -10.3638 -33.3424 0.298665 -15.3668 2.21353 3.15759 -21.8798 11.465 -0.18472 33.6764 0.620594 -8.87362 -16.4439 -22.4657 5.27609 -20.759 -4.40441 0.188871 31.0988 -0.614342 6.84044 -18.0176 15.4524
45.0582 83.2973 -84.5677 2.6388 -22.75 5.6721 -1.64608 -1.62093 -2.97158 3.62612 -4.70176 -0.656106 -7.70395 -26.0811 -7.51197 86.4321 30.6863 -16.5693 -17.1817 -9.47505 32.6989 -0.0455615 -5.90818 -0.833495 -82.4448 25.7792 8.53228 18.5372 -10.8425 -35.8749 0.371158 -16.552 2.39831 3.43045 -22.9944 12.4484 -0.225949 35.7272 0.677239 -9.97394 -17.4403 -24.1585 5.39509 -22.0535 -4.67877 0.236829 33.4097 -0.680581 7.72451 -19.5752 16.5376
45.1686 83.3114 -84.5028 2.8248 -22.6857 5.4519 -2.0114 -1.72228 -2.83697 3.70827 -4.63605 -0.613532 -7.55414 -25.8124 -7.34952 85.8921 30.5482 -16.4726 -17.1645 -9.49648 32.6106 -0.0391716 -5.51091 -0.777031 -81.7259 25.7992 8.38592 18.5231 -10.8741 -35.776 0.370209 -16.5824 2.40255 3.19217 -22.9156 12.4445 -0.221737 35.5074 0.669248 -9.80722 -17.2932 -23.902 5.20547 -21.8755 -4.52291 0.230535 33.1167 -0.672401 7.56181 -19.5931 16.169
45.1956 83.362 -84.4818 2.7668 -22.797 5.4394 -2.29046 -1.77054 -2.6159 3.69126 -4.44225 -0.550358 -7.11086 -24.7448 -6.92628 82.5794 29.6248 -15.7743 -16.8181 -9.35301 31.5822 -0.0306324 -4.954 -0.698015 -78.468 25.1054 7.93032 18.172 -10.7318 -34.6185 0.339432 -16.1688 2.33682 2.78564 -22.3366 12.0442 -0.199048 34.3648 0.635568 -9.15615 -16.6958 -22.9063 4.92097 -21.1152 -4.21731 0.202993 31.8019 -0.635087 6.98487 -18.9999 15.2163
45.2766 83.4311 -84.4527 2.8951 -22.9511 5.4654 -2.45848 -1.78821 -2.48244 3.67711 -4.34738 -0.511452 -6.92513 -23.9817 -6.67379 80.6865 29.1868 -15.4141 -16.6527 -9.30804 31.0629 -0.0264771 -4.6399 -0.653539 -76.4764 24.7575 7.6312 17.9817 -10.667 -33.9791 0.325555 -16.0218 2.31294 2.56678 -21.9464 11.844 -0.185448 33.6477 0.615612 -8.80591 -16.3405 -22.3827 4.76146 -20.6642 -4.04034 0.187868 31.0474 -0.614364 6.6308 -18.7272 14.5556
45.4122 83.4726 -84.389 3.1252 -22.9408 5.3773 -2.44397 -1.75363 -2.47898 3.66682 -4.40196 -0.508416 -7.12771 -23.6398 -6.66356 80.9028 29.4883 -15.5618 -16.7753 -9.42873 31.325 -0.0270324 -4.68684 -0.660182 -76.3627 24.9508 7.54517 18.0409 -10.7306 -34.1123 0.337007 -16.2963 2.35473 2.63298 -21.8227 11.9544 -0.183142 33.5479 0.614228 -8.88058 -16.3554 -22.5725 4.81136 -20.6761 -4.0628 0.189148 31.1466 -0.617409 6.58105 -18.9896 14.2938
45.4666 83.4777 -84.3774 2.8518 -22.8329 5.4789 -2.28198 -1.66399 -2.51404 3.61465 -4.48826 -0.517447 -7.4336 -23.1894 -6.68237 81.1466 29.8763 -15.7507 -16.919 -9.57112 31.6346 -0.0291912 -4.87657 -0.687027 -76.236 25.1487 7.44873 18.0945 -10.7886 -34.2332 0.351122 -16.6247 2.40492 2.7967 -21.6324 12.0752 -0.179648 33.4024 0.612653 -8.99668 -16.3858 -22.8594 4.94317 -20.7033 -4.13818 0.191165 31.2985 -0.621942 6.53073 -19.2993 14.0087
45.4951 83.4722 -84.3717 2.424 -22.6287 5.5794 -2.10759 -1.57019 -2.56088 3.5534 -4.58091 -0.530226 -7.73077 -22.7696 -6.71214 81.3851 30.2827 -15.9215 -17.0536 -9.70509 31.9279 -0.0320238 -5.10676 -0.719627 -76.1153 25.3185 7.37047 18.1491 -10.8478 -34.3561 0.36494 -16.9344 2.45248 2.96262 -21.4547 12.1747 -0.17647 33.2764 0.611955 -9.12134 -16.4335 -23.1468 5.07817 -20.7377 -4.21008 0.193147 31.4439 -0.626039 6.48213 -19.5577 13.7602
45.5778 83.4746 -84.3152 2.3482 -22.4612 5.4699 -2.05613 -1.52312 -2.5928 3.51593 -4.65454 -0.538424 -7.90799 -22.5196 -6.73468 81.5826 30.6397 -16.013 -17.1504 -9.80152 32.1408 -0.0342505 -5.27511 -0.743491 -76.02 25.4275 7.33919 18.211 -10.9154 -34.4954 0.375015 -17.153 2.48618 3.03634 -21.3687 12.2216 -0.175105 33.2353 0.613192 -9.22127 -16.5008 -23.3377 5.13779 -20.771 -4.22205 0.19428 31.5235 -0.627749 6.44027 -19.6656 13.6085
45.6821 83.4799 -84.2498 2.4614 -22.437 5.295 -2.18932 -1.56207 -2.60961 3.51364 -4.70537 -0.541686 -7.91145 -22.5002 -6.74366 81.7198 30.9236 -15.9776 -17.1802 -9.83085 32.2083 -0.0351567 -5.33974 -0.752659 -75.9629 25.4531 7.38238 18.2863 -10.9981 -34.6651 0.378702 -17.231 2.49824 2.97301 -21.4328 12.1824 -0.176393 33.3199 0.617663 -9.28942 -16.6112 -23.3861 5.08987 -20.8322 -4.12161 0.1942 31.5089 -0.625659 6.41543 -19.496 13.6376
45.7692 83.4338 -84.2096 2.5071 -22.4756 5.2488 -2.42652 -1.65133 -2.62327 3.52816 -4.74594 -0.543831 -7.80871 -22.6294 -6.74916 81.8162 31.1727 -15.8568 -17.1667 -9.81667 32.1801 -0.0354584 -5.36008 -0.755547 -75.9311 25.4173 7.47815 18.3699 -11.0903 -34.8543 0.378069 -17.217 2.49609 2.82947 -21.5925 12.0822 -0.179426 33.4876 0.624488 -9.34246 -16.7562 -23.3503 4.98048 -20.9152 -3.9512 0.193389 31.436 -0.621105 6.40188 -19.1355 13.7931
45.8546 83.3886 -84.232 2.4197 -22.4004 5.3822 -2.68963 -1.72926 -2.62519 3.54764 -4.77535 -0.542786 -7.6711 -22.8314 -6.75763 81.8943 31.4134 -15.7223 -17.1599 -9.80988 32.1647 -0.0357826 -5.38581 -0.759194 -75.9068 25.3543 7.58124 18.4513 -11.1804 -35.0398 0.376588 -17.186 2.49128 2.66458 -21.7568 11.9778 -0.183046 33.6784 0.631434 -9.38246 -16.8909 -23.2901 4.84782 -20.9594 -3.79692 0.192275 31.3417 -0.616247 6.38362 -18.8051 13.9276
45.9742 83.3704 -84.2579 2.5598 -22.342 5.4719 -2.90046 -1.73421 -2.60679 3.56027 -4.79273 -0.536478 -7.57 -23.0304 -6.77544 81.9776 31.6724 -15.6469 -17.2096 -9.86137 32.2702 -0.0367922 -5.46661 -0.770645 -75.8724 25.2986 7.64655 18.5204 -11.2572 -35.1981 0.377726 -17.2126 2.49536 2.53839 -21.835 11.9265 -0.186031 33.8323 0.636222 -9.41216 -16.9699 -23.2653 4.7292 -20.9045 -3.74519 0.191264 31.2626 -0.613232 6.3494 -18.7254 13.8945
46.1082 83.3163 -84.2173 2.9531 -22.4661 5.2715 -3.04628 -1.62557 -2.56111 3.56933 -4.79455 -0.52286 -7.51002 -23.255 -6.80829 82.0725 31.953 -15.6711 -17.3458 -10.002 32.564 -0.0390445 -5.63879 -0.795063 -75.8329 25.2364 7.66315 18.5783 -11.3221 -35.331 0.382693 -17.322 2.51223 2.45917 -21.7894 11.9508 -0.188302 33.9463 0.63816 -9.43038 -16.9788 -23.2872 4.61967 -20.6835 -3.86017 0.190178 31.1937 -0.61292 6.2871 -19.0628 13.5801
46.1777 83.2778 -84.1383 2.9425 -22.5395 5.0704 -3.1664 -1.44426 -2.49431 3.57897 -4.78236 -0.503536 -7.45821 -23.5293 -6.85167 82.1678 32.2421 -15.75 -17.534 -10.1969 32.9763 -0.0422527 -5.86817 -0.827625 -75.7946 25.1571 7.65478 18.6295 -11.3798 -35.4483 0.389642 -17.4727 2.5355 2.39752 -21.6731 12.0179 -0.190402 34.0481 0.638473 -9.43634 -16.9426 -23.3255 4.50632 -20.3456 -4.08146 0.188888 31.1201 -0.614064 6.19805 -19.6646 13.0859
46.215 83.2685 -84.0823 2.7252 -22.4842 5.0234 -3.26064 -1.25094 -2.41747 3.57868 -4.76294 -0.48191 -7.42935 -23.771 -6.89634 82.2608 32.5415 -15.828 -17.7282 -10.3991 33.4091 -0.0457242 -6.09866 -0.860384 -75.7418 25.0995 7.62843 18.6689 -11.4243 -35.5385 0.397434 -17.639 2.56125 2.35754 -21.5305 12.1015 -0.192005 34.1237 0.637741 -9.43366 -16.8748 -23.3769 4.41276 -20.0046 -4.30917 0.18785 31.0649 -0.615646 6.09932 -20.2708 12.589
46.2623 83.2642 -84.0396 2.639 -22.4208 4.8956 -3.3284 -1.10628 -2.34162 3.55799 -4.74305 -0.461383 -7.43774 -23.8981 -6.93272 82.3474 32.8532 -15.8485 -17.8854 -10.5641 33.7637 -0.0485251 -6.27419 -0.885357 -75.6587 25.102 7.59103 18.6914 -11.4498 -35.5903 0.404848 -17.7956 2.58553 2.34378 -21.4064 12.1754 -0.192795 34.1591 0.636544 -9.42599 -16.789 -23.4383 4.35862 -19.7745 -4.44464 0.187533 31.0508 -0.61665 6.02337 -20.6205 12.2692
46.294 83.3521 -83.9731 2.6219 -22.4194 4.7146 -3.35202 -1.02201 -2.26373 3.49926 -4.72149 -0.441916 -7.52728 -23.845 -6.96385 82.4197 33.1692 -15.7681 -17.983 -10.6672 33.9854 -0.0502357 -6.37969 -0.900374 -75.5196 25.2217 7.5273 18.6939 -11.4526 -35.5964 0.412487 -17.9563 2.61049 2.37809 -21.3026 12.2461 -0.192534 34.1414 0.634584 -9.40968 -16.6498 -23.536 4.36468 -19.6962 -4.44375 0.188301 31.0953 -0.616427 5.98023 -20.5818 12.1876
46.3314 83.4444 -83.9252 2.6669 -22.477 4.6101 -3.33748 -0.967249 -2.17988 3.41301 -4.69564 -0.422009 -7.67658 -23.6703 -6.99279 82.4801 33.4915 -15.6252 -18.0493 -10.7379 34.136 -0.0512709 -6.44511 -0.909685 -75.3396 25.4223 7.43909 18.6799 -11.4367 -35.5643 0.420731 -18.1279 2.63719 2.45113 -21.1988 12.3229 -0.191447 34.0811 0.631705 -9.38372 -16.4631 -23.6628 4.41391 -19.7052 -4.36547 0.189824 31.1824 -0.615646 5.95708 -20.3143 12.2449
46.4016 83.3851 -83.922 2.5849 -22.4134 4.6342 -3.31937 -0.938819 -2.09977 3.33103 -4.67019 -0.402879 -7.80203 -23.4772 -7.0099 82.5406 33.8371 -15.4871 -18.1186 -10.8133 34.2906 -0.0518266 -6.48188 -0.914916 -75.1645 25.6032 7.35911 18.654 -11.4074 -35.5047 0.427855 -18.274 2.65996 2.52115 -21.1057 12.3846 -0.189916 33.9994 0.628705 -9.35664 -16.3043 -23.7646 4.4673 -19.7584 -4.26628 0.191534 31.2849 -0.615267 5.95912 -19.9941 12.383
46.4584 83.3139 -83.9244 2.3689 -22.3741 4.771 -3.33227 -0.933522 -2.03308 3.28509 -4.64978 -0.38574 -7.82035 -23.369 -7.00557 82.6148 34.2233 -15.4221 -18.2243 -10.9298 34.5251 -0.0521231 -6.50143 -0.917697 -75.0412 25.6636 7.32036 18.6208 -11.37 -35.4281 0.432019 -18.358 2.6731 2.54657 -21.0344 12.4101 -0.188314 33.9175 0.626377 -9.33796 -16.2482 -23.7876 4.48566 -19.8125 -4.20274 0.192871 31.3752 -0.616254 5.99327 -19.7967 12.5435
46.5135 83.2917 -83.8793 2.304 -22.477 4.7661 -3.3903 -0.965396 -1.96833 3.29149 -4.63716 -0.366398 -7.65235 -23.4026 -6.97635 82.7217 34.6844 -15.467 -18.3928 -11.1172 34.9015 -0.0518445 -6.48377 -0.915183 -74.992 25.5568 7.33571 18.5806 -11.3248 -35.3359 0.432146 -18.3601 2.67343 2.50601 -20.9972 12.3816 -0.186411 33.8258 0.624821 -9.32915 -16.3564 -23.6761 4.45281 -19.8771 -4.18772 0.193731 31.4547 -0.61964 6.08921 -19.7796 12.7657
46.584 83.2851 -83.8424 2.3584 -22.5156 4.6689 -3.47317 -1.03119 -1.90503 3.33067 -4.62934 -0.345709 -7.36137 -23.5132 -6.92763 82.8521 35.201 -15.5816 -18.5978 -11.347 35.3664 -0.0509988 -6.43048 -0.907599 -74.9883 25.3431 7.38625 18.531 -11.2691 -35.2228 0.42934 -18.303 2.66451 2.42523 -20.985 12.3143 -0.184116 33.7179 0.623653 -9.32462 -16.5753 -23.4724 4.39156 -19.9683 -4.19182 0.194411 31.535 -0.624659 6.23493 -19.845 13.0626
